<svg version="1.1" xmlns="http://www.w3.org/2000/svg" xmlns:xlink="http://www.w3.org/1999/xlink" width="13.22776" height="15.14762" viewBox="0,0,13.22776,15.14762"><g transform="translate(-233.41893,-172.30995)"><g data-paper-data="{&quot;isPaintingLayer&quot;:true}" fill-rule="nonzero" stroke="#000000" stroke-width="0.5" stroke-linejoin="miter" stroke-miterlimit="10" stroke-dasharray="" stroke-dashoffset="0" style="mix-blend-mode: normal"><path d="" fill="none" stroke-linecap="round"/><path d="" fill="none" stroke-linecap="round"/><g><path d="M233.66893,180.30411l1.98989,-1.09703c0,0 0.76584,3.30407 3.13601,4.90563c2.23482,1.5101 5.93406,0.83191 5.93406,0.83191l-0.24424,2.2384c0,0 -3.55452,0.34172 -6.91833,-1.52479c-2.78783,-1.54691 -3.89739,-5.35411 -3.89739,-5.35411z" fill="#da9608" stroke-linecap="butt"/><path d="M244.72211,185.02359c0,0 -1.03053,0.16045 -2.28703,0.08205c-1.21583,-0.07586 -2.77623,-0.46669 -3.49197,-0.92498c-0.73851,-0.47287 -1.76757,-1.51549 -2.36529,-2.68142c-0.59352,-1.15775 -0.95451,-2.24432 -0.95451,-2.24432l10.70776,-6.46248l-1.60895,12.23116z" fill="#fcff27" stroke-linecap="round"/><path d="M237.59145,180.91971c0,-0.52934 0.42912,-0.95846 0.95846,-0.95846c0.52934,0 0.95846,0.42912 0.95846,0.95846c0,0.52934 -0.42912,0.95846 -0.95846,0.95846c-0.52934,0 -0.95846,-0.42912 -0.95846,-0.95846z" fill="#fb0000" stroke-linecap="butt"/><path d="M243.86763,183.54307l-2.49844,0.32422l-0.16915,-1.30354l2.49844,-0.32422z" fill="#00ff2d" stroke-linecap="butt"/><path d="M242.90009,176.59981c0,-0.52934 0.42912,-0.95846 0.95846,-0.95846c0.52934,0 0.95846,0.42912 0.95846,0.95846c0,0.52934 -0.42912,0.95846 -0.95846,0.95846c-0.52934,0 -0.95846,-0.42912 -0.95846,-0.95846z" fill="#fb0000" stroke-linecap="butt"/><path d="M241.47079,177.47055l0.18736,2.51241l-1.31083,0.09774l-0.18736,-2.51241z" fill="#00ff2d" stroke-linecap="butt"/><path d="M242.51881,180.00064c0,-0.52934 0.42912,-0.95846 0.95846,-0.95846c0.52934,0 0.95846,0.42912 0.95846,0.95846c0,0.52934 -0.42912,0.95846 -0.95846,0.95846c-0.52934,0 -0.95846,-0.42912 -0.95846,-0.95846z" fill="#fb0000" stroke-linecap="butt"/></g></g></g></svg>