<svg version="1.1" xmlns="http://www.w3.org/2000/svg" xmlns:xlink="http://www.w3.org/1999/xlink" width="257.69966" height="257.69966" viewBox="0,0,257.69966,257.69966"><g transform="translate(-111.15017,-51.15017)"><g data-paper-data="{&quot;isPaintingLayer&quot;:true}" fill-rule="nonzero" stroke="#000000" stroke-width="3.5" stroke-linecap="butt" stroke-linejoin="miter" stroke-miterlimit="10" stroke-dasharray="" stroke-dashoffset="0" style="mix-blend-mode: normal"><g><g><path d="M112.90017,180c0,-70.19528 56.9045,-127.09983 127.09983,-127.09983c70.19528,0 127.09983,56.9045 127.09983,127.09983c0,70.19528 -56.9045,127.09983 -127.09983,127.09983c-70.19528,0 -127.09983,-56.9045 -127.09983,-127.09983z" fill="#da9608"/><path d="M135.79344,180c0,-57.55172 46.65489,-104.20656 104.20656,-104.20656c57.55172,0 104.20656,46.65489 104.20656,104.20656c0,57.55172 -46.65489,104.20656 -104.20656,104.20656c-57.55172,0 -104.20656,-46.65489 -104.20656,-104.20656z" fill="#fcff27"/></g><path d="M177.53801,128.6251c0,-9.55457 7.7455,-17.30006 17.30006,-17.30006c9.55457,0 17.30006,7.7455 17.30006,17.30006c0,9.55457 -7.7455,17.30006 -17.30006,17.30006c-9.55457,0 -17.30006,-7.7455 -17.30006,-17.30006z" fill="#fb0000"/><path d="M273.35388,139.2713c0,-10.04454 8.1427,-18.18729 18.18729,-18.18729c10.04454,0 18.18729,8.1427 18.18729,18.18729c0,10.04454 -8.1427,18.18729 -18.18729,18.18729c-10.04454,0 -18.18729,-8.1427 -18.18729,-18.18729z" fill="#fb0000"/><path d="M235.205,183.18693c0,-8.81958 7.14972,-15.9693 15.9693,-15.9693c8.81958,0 15.9693,7.14972 15.9693,15.9693c0,8.81958 -7.14972,15.9693 -15.9693,15.9693c-8.81958,0 -15.9693,-7.14972 -15.9693,-15.9693z" fill="#fb0000"/><path d="M172.21491,217.34347c0,-8.57462 6.95109,-15.52572 15.52572,-15.52572c8.57462,0 15.52572,6.95109 15.52572,15.52572c0,8.57462 -6.95109,15.52572 -15.52572,15.52572c-8.57462,0 -15.52572,-6.95109 -15.52572,-15.52572z" fill="#fb0000"/><path d="M250.76582,268.09007l-23.63772,-33.26788l17.35718,-12.33274l23.63772,33.26788z" fill="#00ff2d"/><path d="M230.12179,125.6675l20.01782,-35.56378l18.55501,10.44411l-20.01777,35.56378z" fill="#00ff2d"/><path d="M200.93456,181.37615l-40.47114,5.2519l-2.74009,-21.1154l40.47108,-5.2519z" fill="#00ff2d"/><path d="M281.91701,210.04915l24.41633,-32.70077l17.06127,12.73896l-24.41628,32.70077z" fill="#00ff2d"/></g></g></g></svg>