<svg version="1.1" xmlns="http://www.w3.org/2000/svg" xmlns:xlink="http://www.w3.org/1999/xlink" width="31.09966" height="31.09966" viewBox="0,0,31.09966,31.09966"><g transform="translate(-224.45017,-164.45017)"><g data-paper-data="{&quot;isPaintingLayer&quot;:true}" fill-rule="nonzero" stroke="#000000" stroke-width="0.5" stroke-linecap="butt" stroke-linejoin="miter" stroke-miterlimit="10" stroke-dasharray="" stroke-dashoffset="0" style="mix-blend-mode: normal"><g><path d="M224.70017,180c0,-8.44986 6.84996,-15.29983 15.29983,-15.29983c8.44986,0 15.29983,6.84996 15.29983,15.29983c0,8.44986 -6.84996,15.29983 -15.29983,15.29983c-8.44986,0 -15.29983,-6.84996 -15.29983,-15.29983z" fill="#da9608"/><path d="M227.45598,180c0,-6.92787 5.61615,-12.54402 12.54402,-12.54402c6.92787,0 12.54402,5.61615 12.54402,12.54402c0,6.92787 -5.61615,12.54402 -12.54402,12.54402c-6.92787,0 -12.54402,-5.61615 -12.54402,-12.54402z" fill="#fcff27"/></g><path d="M232.48105,173.81567c0,-1.15015 0.93238,-2.08252 2.08252,-2.08252c1.15015,0 2.08252,0.93238 2.08252,2.08252c0,1.15015 -0.93238,2.08252 -2.08252,2.08252c-1.15015,0 -2.08252,-0.93238 -2.08252,-2.08252z" fill="#fb0000"/><path d="M244.01502,175.09722c0,-1.20913 0.98019,-2.18932 2.18932,-2.18932c1.20913,0 2.18932,0.98019 2.18932,2.18932c0,1.20913 -0.98019,2.18932 -2.18932,2.18932c-1.20913,0 -2.18932,-0.98019 -2.18932,-2.18932z" fill="#fb0000"/><path d="M239.42279,180.38363c0,-1.06167 0.86066,-1.92233 1.92233,-1.92233c1.06167,0 1.92233,0.86066 1.92233,1.92233c0,1.06167 -0.86066,1.92233 -1.92233,1.92233c-1.06167,0 -1.92233,-0.86066 -1.92233,-1.92233z" fill="#fb0000"/><path d="M231.84027,184.49528c0,-1.03218 0.83675,-1.86893 1.86893,-1.86893c1.03218,0 1.86893,0.83675 1.86893,1.86893c0,1.03218 -0.83675,1.86893 -1.86893,1.86893c-1.03218,0 -1.86893,-0.83675 -1.86893,-1.86893z" fill="#fb0000"/><path d="M241.29595,190.60397l-2.84543,-4.00467l2.0894,-1.48457l2.84543,4.00467z" fill="#00ff2d"/><path d="M238.8109,173.45965l2.40967,-4.28104l2.23359,1.25722l-2.40967,4.28104z" fill="#00ff2d"/><path d="M235.29744,180.16566l-4.87177,0.63221l-0.32984,-2.5418l4.87177,-0.63221z" fill="#00ff2d"/><path d="M245.04582,183.61721l2.93915,-3.9364l2.05378,1.53347l-2.93915,3.9364z" fill="#00ff2d"/></g></g></svg>