<svg version="1.1" xmlns="http://www.w3.org/2000/svg" xmlns:xlink="http://www.w3.org/1999/xlink" width="47.19966" height="47.19966" viewBox="0,0,47.19966,47.19966"><g transform="translate(-216.40017,-156.40017)"><g data-paper-data="{&quot;isPaintingLayer&quot;:true}" fill-rule="nonzero" stroke="#000000" stroke-width="1" stroke-linecap="butt" stroke-linejoin="miter" stroke-miterlimit="10" stroke-dasharray="" stroke-dashoffset="0" style="mix-blend-mode: normal"><g><g><path d="M216.90017,180c0,-12.75768 10.34214,-23.09983 23.09983,-23.09983c12.75768,0 23.09983,10.34214 23.09983,23.09983c0,12.75768 -10.34214,23.09983 -23.09983,23.09983c-12.75768,0 -23.09983,-10.34214 -23.09983,-23.09983z" fill="#da9608"/><path d="M221.06092,180c0,-10.45977 8.47932,-18.93908 18.93908,-18.93908c10.45977,0 18.93908,8.47932 18.93908,18.93908c0,10.45977 -8.47932,18.93908 -18.93908,18.93908c-10.45977,0 -18.93908,-8.47932 -18.93908,-18.93908z" fill="#fcff27"/></g><path d="M228.64781,170.66284c0,-1.7365 1.40771,-3.14421 3.14421,-3.14421c1.7365,0 3.14421,1.40771 3.14421,3.14421c0,1.7365 -1.40771,3.14421 -3.14421,3.14421c-1.7365,0 -3.14421,-1.40771 -3.14421,-3.14421z" fill="#fb0000"/><path d="M246.06192,172.59774c0,-1.82555 1.4799,-3.30546 3.30546,-3.30546c1.82555,0 3.30546,1.4799 3.30546,3.30546c0,1.82555 -1.4799,3.30546 -3.30546,3.30546c-1.82555,0 -3.30546,-1.4799 -3.30546,-3.30546z" fill="#fb0000"/><path d="M239.12853,180.57921c0,-1.60292 1.29943,-2.90235 2.90235,-2.90235c1.60292,0 2.90235,1.29943 2.90235,2.90235c0,1.60292 -1.29943,2.90235 -2.90235,2.90235c-1.60292,0 -2.90235,-1.29943 -2.90235,-2.90235z" fill="#fb0000"/><path d="M227.68036,186.78701c0,-1.5584 1.26333,-2.82173 2.82173,-2.82173c1.5584,0 2.82173,1.26333 2.82173,2.82173c0,1.5584 -1.26333,2.82173 -2.82173,2.82173c-1.5584,0 -2.82173,-1.26333 -2.82173,-2.82173z" fill="#fb0000"/><path d="M241.95664,196.00998l-4.29605,-6.04629l3.15459,-2.24142l4.29605,6.04629z" fill="#00ff2d"/><path d="M238.20468,170.12531l3.63815,-6.46356l3.37229,1.89817l-3.63814,6.46356z" fill="#00ff2d"/><path d="M232.90003,180.25011l-7.35545,0.95451l-0.498,-3.83763l7.35544,-0.95451z" fill="#00ff2d"/><path d="M247.61823,185.4613l4.43756,-5.94322l3.10081,2.31525l-4.43755,5.94322z" fill="#00ff2d"/></g></g></g></svg>