<svg version="1.1" xmlns="http://www.w3.org/2000/svg" xmlns:xlink="http://www.w3.org/1999/xlink" width="160.7371" height="160.7371" viewBox="0,0,160.7371,160.7371"><g transform="translate(-159.63145,-99.63145)"><g data-paper-data="{&quot;isPaintingLayer&quot;:true}" fill-rule="nonzero" stroke="#000000" stroke-width="2" stroke-linecap="butt" stroke-linejoin="miter" stroke-miterlimit="10" stroke-dasharray="" stroke-dashoffset="0" style="mix-blend-mode: normal"><g><g><path d="M160.63145,180c0,-43.83403 35.53449,-79.36855 79.36855,-79.36855c43.83403,0 79.36855,35.53449 79.36855,79.36855c0,43.83403 -35.53449,79.36855 -79.36855,79.36855c-43.83403,0 -79.36855,-35.53449 -79.36855,-79.36855z" fill="#da9608"/><path d="M174.92734,180c0,-35.93865 29.13404,-65.07266 65.07266,-65.07266c35.93865,0 65.07266,29.13404 65.07266,65.07266c0,35.93865 -29.13404,65.07266 -65.07266,65.07266c-35.93865,0 -65.07266,-29.13404 -65.07266,-65.07266z" fill="#fcff27"/></g><path d="M200.99508,147.91851c0,-5.96643 4.83674,-10.80317 10.80317,-10.80317c5.96643,0 10.80317,4.83674 10.80317,10.80317c0,5.96643 -4.83674,10.80317 -10.80317,10.80317c-5.96643,0 -10.80317,-4.83674 -10.80317,-10.80317z" fill="#fb0000"/><path d="M260.82811,154.56662c0,-6.27239 5.08478,-11.35721 11.35721,-11.35721c6.27239,0 11.35721,5.08478 11.35721,11.35721c0,6.27239 -5.08478,11.35721 -11.35721,11.35721c-6.27239,0 -11.35721,-5.08478 -11.35721,-11.35721z" fill="#fb0000"/><path d="M237.00572,181.9901c0,-5.50746 4.4647,-9.97216 9.97216,-9.97216c5.50746,0 9.97216,4.4647 9.97216,9.97216c0,5.50746 -4.4647,9.97216 -9.97216,9.97216c-5.50746,0 -9.97216,-4.4647 -9.97216,-9.97216z" fill="#fb0000"/><path d="M197.67103,203.31944c0,-5.3545 4.34067,-9.69516 9.69516,-9.69516c5.3545,0 9.69516,4.34067 9.69516,9.69516c0,5.3545 -4.34067,9.69516 -9.69516,9.69516c-5.3545,0 -9.69516,-4.34067 -9.69516,-9.69516z" fill="#fb0000"/><path d="M246.7228,235.00858l-14.76077,-20.77441l10.83883,-7.70128l14.76077,20.77441z" fill="#00ff2d"/><path d="M233.83147,146.07162l12.5003,-22.2081l11.58683,6.52191l-12.50026,22.2081z" fill="#00ff2d"/><path d="M215.60526,180.85935l-25.27254,3.27959l-1.71107,-13.18569l25.27251,-3.27959z" fill="#00ff2d"/><path d="M266.17542,198.76444l15.24698,-20.42027l10.65405,7.95495l-15.24695,20.42027z" fill="#00ff2d"/></g></g></g></svg>